<?xml version="1.0" encoding="UTF-8"?>
<svg width="56" height="56" viewBox="0 0 56 56" fill="none" xmlns="http://www.w3.org/2000/svg" role="img" aria-label="StayCraft mark">
  <title>StayCraft</title>

  <rect x="10" y="10" width="36" height="36" rx="10" fill="#FFFFFF"/>
  <rect x="10" y="10" width="36" height="36" rx="10" stroke="#0B1220" stroke-width="1.6"/>

  <rect x="18.5" y="22" width="9.5" height="18" rx="2" fill="#FFFFFF" stroke="#0B1220" stroke-width="1.4"/>
  <rect x="30" y="18.5" width="10" height="21.5" rx="2" fill="#FFFFFF" stroke="#0B1220" stroke-width="1.4"/>

  <path d="M21 26.2h5.0M21 30.3h5.0M21 34.4h5.0" stroke="#0B1220" stroke-width="1.1" stroke-linecap="round" opacity="0.85"/>
  <path d="M32.2 23.6h5.4M32.2 28.0h5.4M32.2 32.4h5.4M32.2 36.8h5.4" stroke="#0B1220" stroke-width="1.1" stroke-linecap="round" opacity="0.85"/>

  <path d="M34.2 39.9v-4.2c0-1.1.9-2 2-2h0.9c1.1 0 2 .9 2 2v4.2" stroke="#0F766E" stroke-width="1.8" stroke-linecap="round"/>
</svg>