<?xml version="1.0" encoding="UTF-8"?>
<svg width="320" height="64" viewBox="0 0 320 64" fill="none" xmlns="http://www.w3.org/2000/svg" role="img" aria-label="StayCraft logo">
  <title>StayCraft</title>

  <!--
    Style: flat, geometric, no gradients/shadows/3D
    Palette:
      Ink (near-black): #111827
      Accent (teal):   #0F766E
    Background: transparent
  -->

  <!-- Icon: minimal location pin with a small house inside -->
  <g transform="translate(12,10)">
    <!-- Pin outline -->
    <path
      d="M22 2C14.82 2 9 7.82 9 15c0 8.9 10.07 20.9 12.17 23.35a1 1 0 0 0 1.66 0C24.93 35.9 35 23.9 35 15 35 7.82 29.18 2 22 2Z"
      fill="none"
      stroke="#0F766E"
      stroke-width="2.5"
      stroke-linejoin="round"
    />
    <!-- Pin center dot (optional, kept minimal) -->
    <circle cx="22" cy="15" r="2" fill="#0F766E"/>

    <!-- House (simple) -->
    <path
      d="M16.8 18.2V13.6L22 9.6l5.2 4v4.6"
      fill="none"
      stroke="#111827"
      stroke-width="2.2"
      stroke-linecap="round"
      stroke-linejoin="round"
    />
    <path
      d="M18.3 18.2v-4.2h7.4v4.2"
      fill="none"
      stroke="#111827"
      stroke-width="2.2"
      stroke-linecap="round"
      stroke-linejoin="round"
    />
    <!-- Door -->
    <path
      d="M21 18.2v-2.6c0-.6.4-1 1-1s1 .4 1 1v2.6"
      fill="none"
      stroke="#0F766E"
      stroke-width="2.2"
      stroke-linecap="round"
    />
  </g>

  <!-- Wordmark -->
  <text x="66" y="40"
        font-family="Poppins, Inter, system-ui, -apple-system, Segoe UI, Roboto, Arial, sans-serif"
        font-size="26"
        font-weight="800"
        fill="#111827"
        letter-spacing="-0.3">
    Stay
  </text>

  <text x="124" y="40"
        font-family="Poppins, Inter, system-ui, -apple-system, Segoe UI, Roboto, Arial, sans-serif"
        font-size="26"
        font-weight="800"
        fill="#0F766E"
        letter-spacing="-0.3">
    Craft
  </text>
</svg>